<?xml version="1.0" standalone="no"?>
<!DOCTYPE svg PUBLIC "-//W3C//DTD SVG 20010904//EN"
 "http://www.w3.org/TR/2001/REC-SVG-20010904/DTD/svg10.dtd">
<svg version="1.0" xmlns="http://www.w3.org/2000/svg"
 width="512.000000pt" height="512.000000pt" viewBox="0 0 512.000000 512.000000"
 preserveAspectRatio="xMidYMid meet">
<metadata>
Created by potrace 1.11, written by Peter Selinger 2001-2013
</metadata>
<g transform="translate(0.000000,512.000000) scale(0.100000,-0.100000)"
fill="#000000" stroke="none">
<path d="M235 4946 c-22 -7 -54 -20 -70 -28 -32 -17 -105 -82 -105 -94 0 -4
-6 -15 -14 -23 -7 -9 -21 -38 -30 -65 -15 -46 -16 -205 -14 -1875 l3 -1826 22
-48 c13 -27 34 -62 48 -79 26 -30 90 -81 110 -88 6 -1 15 -4 20 -5 6 -2 25 -8
42 -14 48 -15 4619 -10 4653 5 14 7 29 12 33 12 11 1 78 51 97 73 43 49 51 63
70 116 19 57 19 87 17 1883 l-2 1825 -22 47 c-36 78 -81 126 -152 161 l-66 32
-2300 2 c-1835 1 -2308 -1 -2340 -11z m4648 -170 c15 -10 38 -33 50 -50 l22
-31 3 -1568 c2 -1442 1 -1570 -14 -1600 -21 -39 -49 -65 -89 -82 -24 -10 -517
-12 -2305 -11 l-2275 1 -39 24 c-24 15 -45 40 -57 65 -18 39 -19 101 -19 1586
0 908 4 1558 9 1577 11 38 45 76 86 97 27 14 268 16 2315 13 2219 -2 2286 -3
2313 -21z m-2269 -3611 c21 -22 25 -42 18 -91 -1 -6 -18 -19 -37 -30 -34 -18
-36 -18 -69 0 -37 20 -47 41 -40 84 10 61 86 83 128 37z"/>
<path d="M400 4322 c0 -4 -37 -7 -82 -7 -77 0 -81 -1 -83 -22 -1 -13 2 -23 6
-23 4 0 6 -7 5 -16 -1 -12 8 -17 27 -18 16 -1 31 2 33 6 3 5 10 5 17 1 13 -8
57 -11 57 -3 0 3 11 5 25 5 14 0 25 -2 25 -5 0 -7 144 -5 157 3 5 4 13 4 17 0
9 -9 176 -10 204 -1 12 4 22 3 22 -2 0 -5 10 -9 23 -7 21 2 22 -1 25 -107 2
-65 -1 -113 -8 -120 -12 -12 -110 -15 -110 -3 0 5 -6 5 -12 0 -17 -10 -67 -11
-94 -1 -12 4 -25 4 -28 1 -10 -10 -286 -9 -286 2 0 5 -5 4 -10 -1 -6 -6 -29
-9 -50 -7 -22 2 -40 0 -41 -4 -4 -43 -3 -70 3 -67 4 2 9 1 11 -3 3 -5 144 -7
315 -7 l309 1 3 -56 c1 -31 2 -63 1 -71 0 -8 -1 -35 -1 -59 -1 -51 -9 -69 -21
-50 -5 8 -9 9 -9 4 0 -7 -34 -10 -92 -8 -112 4 -104 4 -153 0 -22 -2 -47 0
-56 4 -8 4 -21 4 -29 -1 -7 -4 -24 -4 -36 0 -13 5 -25 6 -28 2 -3 -4 -50 -7
-106 -7 -88 1 -103 -2 -111 -17 -7 -12 -6 -18 1 -18 8 0 8 -6 0 -20 -13 -24
-52 -22 332 -22 l308 -1 0 -51 c0 -28 0 -60 0 -71 0 -11 0 -41 0 -67 0 -26 -4
-49 -10 -53 -5 -3 -10 0 -10 7 0 8 -3 9 -8 3 -8 -12 -141 -13 -159 -2 -7 5
-13 5 -13 0 0 -4 -34 -8 -75 -8 -41 0 -75 4 -75 8 0 5 -6 5 -12 0 -17 -10
-258 -11 -258 0 0 4 -6 2 -13 -4 -7 -7 -12 -24 -11 -38 1 -14 3 -30 3 -36 1
-6 112 -10 313 -9 172 0 318 -1 323 -3 6 -2 9 -49 7 -121 l-3 -117 -315 0
c-299 0 -352 -3 -325 -19 7 -5 8 -13 2 -24 -6 -11 -5 -21 3 -27 7 -6 128 -10
321 -10 l310 0 2 -120 3 -120 -311 0 c-171 0 -314 -2 -319 -5 -9 -6 -13 -25
-11 -55 1 -20 8 -20 317 -20 174 0 318 -4 321 -8 6 -10 4 -202 -2 -219 -4 -11
-67 -13 -313 -12 -169 0 -313 -2 -320 -4 -9 -3 -10 -8 -2 -17 8 -9 8 -15 0
-20 -7 -4 -7 -12 -1 -23 9 -15 40 -17 313 -18 167 -1 309 -2 316 -3 10 -1 12
-29 10 -118 l-3 -118 -317 0 c-208 0 -317 -3 -314 -10 2 -5 -1 -20 -5 -32 -5
-15 -5 -23 2 -23 6 0 8 -4 5 -8 -2 -4 137 -8 309 -8 173 0 317 -3 320 -6 3 -3
5 -41 5 -84 -1 -44 -1 -95 0 -115 l1 -35 -313 0 c-295 1 -314 0 -324 -18 -6
-10 -9 -28 -6 -41 l4 -22 301 -1 c166 0 310 -1 320 -1 15 -1 17 -12 17 -80 l0
-80 40 2 c30 1 40 5 38 17 -1 8 1 21 5 28 5 7 4 12 -3 12 -7 0 -8 6 0 19 7 14
7 22 0 26 -8 5 -7 11 1 21 8 10 8 14 0 14 -7 0 -8 8 -1 25 6 15 6 27 0 30 -5
3 -6 15 -1 28 5 13 5 30 0 39 -6 11 -5 19 1 23 7 4 7 13 0 26 -6 10 -7 19 -2
19 9 0 8 53 -2 69 -4 6 -2 20 4 31 8 14 8 20 0 20 -8 0 -8 6 0 20 8 14 8 20 0
20 -8 0 -8 6 0 20 8 14 8 20 0 20 -7 0 -8 6 0 19 7 14 7 22 0 26 -6 4 -7 11
-3 18 9 15 10 57 1 51 -11 -7 -10 4 2 27 8 13 7 19 0 19 -6 0 -8 5 -5 11 10
16 12 79 2 79 -4 0 -3 8 2 18 6 11 6 24 0 35 -6 9 -6 17 -2 17 9 0 8 74 -2 89
-3 5 -1 12 5 16 7 4 7 12 0 25 -7 13 -7 21 0 25 7 4 7 13 0 26 -8 13 -7 19 0
19 8 0 8 6 0 20 -6 11 -7 20 -3 20 4 0 8 38 8 85 0 47 -4 85 -8 85 -4 0 -3 8
2 18 7 13 7 22 0 29 -8 8 -7 13 0 17 8 5 8 13 1 27 -8 13 -7 25 0 39 8 14 8
20 0 20 -8 0 -8 6 0 20 8 14 8 20 0 20 -8 0 -8 6 0 20 8 14 8 20 0 20 -7 0 -8
6 0 19 7 14 7 22 0 26 -6 4 -7 11 -3 18 9 15 10 57 1 51 -4 -3 -8 0 -8 5 0 6
5 11 10 11 7 0 7 6 1 19 -6 10 -7 21 -4 25 8 8 8 68 0 89 -4 10 -3 17 1 17 4
0 7 11 7 25 0 14 -4 25 -8 25 -5 0 -5 5 -2 11 9 13 11 147 3 155 -4 3 -2 19 2
35 5 17 5 31 -1 34 -5 4 -5 13 0 24 6 10 6 23 1 31 -5 8 -5 21 0 30 5 9 4 23
-1 33 -6 9 -6 17 -2 17 4 0 8 13 8 29 0 16 -3 27 -7 24 -5 -2 -4 7 1 20 5 13
6 30 1 37 -5 7 -5 23 0 35 4 11 4 28 -1 37 -6 10 -6 19 0 23 7 4 7 15 1 30 -5
14 -6 25 -2 25 4 0 7 11 7 25 0 14 -4 25 -8 25 -4 0 -3 9 3 20 7 13 7 20 1 20
-7 0 -7 8 -1 24 5 13 6 27 2 31 -10 10 -8 49 3 57 6 5 5 8 -2 8 -9 0 -10 7 -3
24 5 15 5 27 -2 34 -7 7 26 10 107 9 64 -1 119 0 121 2 7 7 44 8 44 2 0 -8
143 -6 157 2 5 4 13 4 17 0 9 -9 336 -10 364 -1 12 4 22 4 22 0 0 -4 43 -7 95
-7 52 0 95 2 95 5 0 3 11 5 25 5 14 0 25 -2 25 -5 0 -7 144 -5 157 3 5 4 13 4
17 0 7 -8 96 -10 96 -3 0 3 11 5 25 5 14 0 25 -2 25 -5 0 -7 144 -5 157 3 5 4
13 4 16 0 7 -7 256 -10 263 -4 7 7 44 8 44 2 0 -8 143 -6 157 2 5 4 13 4 16 0
7 -7 416 -10 423 -4 7 7 44 8 44 2 0 -8 143 -6 157 2 5 4 13 4 16 0 8 -7 257
-10 257 -3 0 3 11 5 25 5 14 0 25 -2 25 -5 0 -7 144 -5 157 3 5 4 13 4 17 0 7
-8 96 -10 96 -3 0 3 11 5 25 5 14 0 25 -2 25 -5 0 -7 144 -5 157 3 5 4 13 4
17 0 9 -9 176 -10 204 -1 12 4 22 4 22 0 0 -6 94 -7 200 -3 13 1 17 25 11 72
-1 3 -140 6 -310 6 -170 0 -314 4 -320 7 -6 4 -11 4 -11 -1 0 -9 -280 -9 -304
0 -9 4 -16 3 -16 -1 0 -8 -1561 -7 -1584 1 -9 4 -16 3 -16 -1 0 -8 -282 -7
-304 1 -9 4 -16 3 -16 -1 0 -8 -1562 -7 -1584 1 -9 4 -16 3 -16 -1z"/>
<path d="M1050 3899 c-15 -27 -12 -182 3 -203 14 -19 67 -30 67 -13 0 6 5 6
13 0 14 -11 167 -11 185 0 6 5 12 5 12 0 0 -14 156 -8 174 6 13 11 16 34 16
112 0 84 -3 100 -17 107 -10 5 -114 9 -231 9 -194 0 -214 -1 -222 -18z"/>
<path d="M1613 3905 c-10 -8 -15 -16 -11 -20 4 -4 3 -17 -2 -29 -4 -12 -4 -29
1 -38 6 -11 5 -19 -1 -23 -8 -5 -8 -11 0 -20 7 -8 7 -15 1 -19 -13 -8 9 -76
26 -77 7 -1 19 -2 26 -3 6 -1 15 3 19 9 5 7 8 7 8 -1 0 -11 99 -12 118 0 7 4
12 3 12 -1 0 -5 26 -7 58 -6 64 4 62 4 117 2 93 -3 96 0 96 109 0 90 0 95 -11
112 -13 21 -430 25 -457 5z"/>
<path d="M2180 3910 c-15 -9 -31 -100 -19 -100 5 0 5 -10 0 -22 -4 -13 -7 -31
-5 -40 2 -10 5 -25 7 -34 2 -9 11 -22 20 -28 17 -13 76 -14 95 -2 7 4 12 4 12
-1 0 -12 104 -10 112 2 5 7 8 7 8 0 0 -10 206 -13 215 -3 3 2 7 15 9 29 2 13
5 24 6 24 1 0 2 17 3 38 1 20 -1 37 -5 37 -4 0 -3 11 2 25 6 15 6 26 -1 30 -5
4 -7 10 -5 14 3 4 1 13 -4 21 -8 12 -48 15 -224 16 -118 1 -220 -2 -226 -6z"/>
<path d="M2183 3591 c-16 -10 -30 -65 -23 -86 4 -11 4 -29 0 -40 -4 -11 -6
-28 -4 -37 2 -10 5 -25 7 -33 2 -8 8 -20 15 -27 14 -14 132 -18 150 -5 6 5 12
6 12 1 0 -5 60 -9 134 -9 142 1 166 8 165 49 0 11 1 35 3 53 2 17 0 30 -4 27
-4 -3 -4 6 1 19 6 14 8 27 5 30 -3 2 -7 15 -9 27 -2 12 -7 25 -11 29 -8 8
-429 10 -441 2z"/>
<path d="M2734 3583 c-19 -20 -20 -180 0 -208 13 -19 26 -20 224 -20 188 0
213 2 230 18 16 15 18 24 12 48 -5 16 -5 31 -2 33 6 4 7 62 2 76 -1 3 -2 12
-1 20 3 43 -8 45 -234 46 -176 1 -219 -1 -231 -13z"/>
<path d="M3294 3583 c-8 -8 -14 -29 -14 -46 0 -18 0 -59 1 -92 0 -38 5 -65 14
-74 20 -21 418 -23 446 -3 16 11 19 26 19 105 0 51 -5 99 -10 107 -14 22 -434
25 -456 3z"/>
<path d="M1054 3263 c-10 -10 -14 -40 -14 -107 0 -76 3 -96 18 -108 14 -12 54
-14 217 -13 110 1 210 5 223 9 21 7 22 13 22 104 0 53 -5 104 -10 112 -14 22
-434 25 -456 3z"/>
<path d="M1610 3257 c-15 -15 -17 -24 -9 -38 6 -13 6 -26 -1 -39 -8 -14 -8
-20 0 -20 7 0 8 -6 0 -19 -6 -12 -6 -22 -1 -25 5 -3 7 -15 4 -26 -3 -12 1 -28
10 -38 14 -15 39 -17 225 -17 159 0 213 3 225 13 13 11 16 34 16 105 0 51 -4
99 -9 107 -8 12 -46 15 -226 16 -204 1 -217 0 -234 -19z"/>
<path d="M2181 3270 c-22 -13 -35 -146 -16 -154 6 -3 5 -5 -2 -5 -9 -1 -9 -9
-1 -33 6 -18 15 -35 19 -38 12 -9 412 -5 437 4 17 6 22 13 19 27 -3 10 -2 21
2 23 7 5 4 96 -4 104 -2 2 0 13 6 23 7 13 6 19 -1 19 -6 0 -9 4 -5 9 3 5 0 13
-7 18 -16 10 -431 13 -447 3z"/>
<path d="M2732 3264 c-8 -8 -12 -48 -12 -107 0 -77 3 -97 18 -109 14 -12 54
-14 222 -12 113 1 210 2 215 3 17 2 33 55 24 79 -5 12 -5 22 -1 22 10 0 5 96
-7 117 -9 16 -30 18 -228 19 -167 0 -222 -2 -231 -12z"/>
<path d="M3294 3263 c-22 -22 -23 -173 0 -207 13 -21 20 -22 230 -21 179 1
219 3 226 15 15 23 12 207 -2 217 -7 4 -109 9 -226 9 -174 1 -216 -1 -228 -13z"/>
<path d="M3854 3262 c-9 -8 -13 -23 -11 -33 3 -11 1 -19 -4 -19 -5 0 -4 -11 1
-25 6 -16 6 -25 0 -25 -6 0 -6 -9 0 -25 6 -15 6 -25 0 -25 -10 0 8 -62 21 -70
4 -3 105 -5 224 -5 205 1 217 2 228 20 13 23 15 46 5 60 -4 6 -3 17 2 25 5 8
5 21 -1 31 -6 12 -5 20 1 24 6 4 8 11 5 16 -4 5 -8 19 -10 30 -3 12 -7 24 -11
28 -3 3 -102 7 -220 7 -180 1 -218 -1 -230 -14z"/>
<path d="M4409 3258 c-6 -11 -10 -38 -9 -61 1 -23 1 -63 1 -88 -1 -73 1 -74
241 -74 210 0 210 0 229 23 14 19 16 29 8 44 -7 14 -7 23 1 33 8 9 8 15 0 20
-6 3 -7 13 -2 23 11 24 7 71 -7 85 -9 9 -76 12 -232 13 -206 1 -221 0 -230
-18z"/>
<path d="M3313 2632 c-14 -2 -25 -12 -28 -25 -7 -34 -11 -117 -5 -117 3 0 5
-17 4 -37 -1 -25 4 -42 15 -49 10 -6 95 -10 229 -9 177 0 214 3 222 15 12 19
13 190 1 210 -8 11 -47 14 -213 15 -112 0 -213 -1 -225 -3z"/>
<path d="M3869 2631 c-22 -7 -38 -35 -29 -50 4 -8 4 -26 0 -41 -4 -15 -4 -33
0 -41 5 -7 5 -20 0 -29 -6 -11 -5 -21 2 -28 7 -7 9 -12 5 -12 -4 0 -3 -8 2
-18 8 -16 28 -17 223 -16 117 1 218 2 224 3 19 2 38 101 22 116 -3 3 -2 20 2
38 5 27 0 48 -18 77 -4 6 -415 7 -433 1z"/>
<path d="M4422 2625 c-12 -6 -19 -22 -19 -42 -1 -18 -2 -36 -3 -40 -5 -22 0
-102 8 -123 l10 -25 213 1 c118 0 222 4 231 8 12 6 16 18 14 44 -1 21 2 45 6
55 6 10 5 17 -2 17 -8 0 -8 6 0 20 8 14 8 20 0 20 -7 0 -8 6 -1 18 6 12 5 23
-5 37 -13 18 -29 19 -224 20 -129 1 -217 -3 -228 -10z"/>
<path d="M1720 1991 c-14 -1 -28 -8 -32 -15 -14 -21 -9 -193 6 -209 11 -11 56
-13 228 -12 117 1 216 3 219 3 14 4 26 49 17 65 -6 11 -5 17 2 17 7 0 8 6 1
18 -5 10 -6 24 -2 32 8 17 8 22 -3 68 -5 19 -14 32 -24 33 -51 3 -391 3 -412
0z"/>
<path d="M2259 1982 c-16 -11 -19 -26 -19 -105 1 -57 5 -98 13 -108 18 -23
443 -22 457 1 5 8 10 56 10 106 0 71 -3 94 -16 105 -23 19 -419 20 -445 1z"/>
<path d="M2840 1992 c-30 -5 -51 -31 -41 -52 4 -8 5 -26 1 -40 -4 -14 -3 -33
2 -42 4 -10 4 -19 -1 -23 -9 -5 2 -61 15 -74 3 -3 102 -6 221 -7 172 -1 217 2
228 13 14 13 17 47 15 158 -1 67 -5 68 -222 69 -106 1 -204 -1 -218 -2z"/>
<path d="M2093 712 c-13 -2 -23 -9 -24 -15 0 -7 -2 -19 -4 -27 -1 -8 -6 -33
-9 -55 -18 -108 -54 -183 -119 -241 -55 -51 -103 -64 -238 -64 -92 0 -125 -4
-144 -16 -53 -35 -35 -128 28 -139 17 -3 470 -4 1006 -3 l974 3 15 24 c22 32
24 51 10 84 -16 40 -39 46 -180 48 -100 1 -131 5 -165 21 -24 11 -43 24 -43
29 0 5 -6 9 -12 9 -7 0 -24 17 -38 38 -14 20 -30 42 -36 49 -19 19 -48 129
-60 222 -2 13 -5 25 -7 28 -5 5 -920 10 -954 5z"/>
</g>
</svg>
